# xmcd
#
# Track frame offsets:
#	150
#	12031
#	25800
#	48639
#	68748
#	86177
#	106249
#	117158
#	133150
#	145851
#	167921
#	190286
#
# Disc length: 2920 seconds
#
# Revision: 0
# Processed by: cddbd v1.5.2PL0 Copyright (c) Steve Scherf et al.
# Submitted via: dBpowerAMP V4.0
#
DISCID=a50b660c
DTITLE=The Infamous Stringdusters - Silver Sky
DYEAR=2012
DGENRE=Bluegrass
TTITLE0=Don't Mean Nothin'
TTITLE1=Rockets
TTITLE2=The Hitchhiker
TTITLE3=Tears of the Earth
TTITLE4=The Place that I Call Home
TTITLE5=Like I Do
TTITLE6=Heady Festy
TTITLE7=Night on the River
TTITLE8=When the Night Comes Around
TTITLE9=Fire
TTITLE10=Walking on the Moon
TTITLE11=He's Gone
EXTD=
EXTT0=
EXTT1=
EXTT2=
EXTT3=
EXTT4=
EXTT5=
EXTT6=
EXTT7=
EXTT8=
EXTT9=
EXTT10=
EXTT11=
PLAYORDER=
